G75*
%MOIN*%
%OFA0B0*%
%FSLAX24Y24*%
%IPPOS*%
%LPD*%
%AMOC8*
5,1,8,0,0,1.08239X$1,22.5*
%
%ADD10OC8,0.0600*%
%ADD11C,0.0357*%
%ADD12C,0.0160*%
%ADD13R,0.0396X0.0396*%
D10*
X014510Y007643D03*
X015510Y007643D03*
X015510Y008643D03*
X014510Y008643D03*
X014510Y009643D03*
X015510Y009643D03*
X015510Y010643D03*
X014510Y010643D03*
X014510Y011643D03*
X015510Y011643D03*
X015510Y012643D03*
X014510Y012643D03*
D11*
X012260Y003643D03*
D12*
X003740Y003373D02*
X003740Y013159D01*
X005280Y013159D01*
X005280Y005298D01*
X005353Y005121D01*
X005488Y004986D01*
X005664Y004913D01*
X010355Y004913D01*
X010531Y004986D01*
X010666Y005121D01*
X010740Y005298D01*
X010740Y013159D01*
X016022Y013159D01*
X016022Y003373D01*
X012468Y003373D01*
X012546Y003452D01*
X012598Y003576D01*
X012598Y003711D01*
X012546Y003835D01*
X012500Y003882D01*
X012500Y009294D01*
X012609Y009403D01*
X014099Y009403D01*
X014319Y009183D01*
X014700Y009183D01*
X014970Y009453D01*
X014970Y009834D01*
X014700Y010103D01*
X014319Y010103D01*
X014099Y009883D01*
X012462Y009883D01*
X012374Y009847D01*
X012306Y009779D01*
X012056Y009529D01*
X012020Y009441D01*
X012020Y003882D01*
X011973Y003835D01*
X011921Y003711D01*
X011921Y003576D01*
X011973Y003452D01*
X012051Y003373D01*
X003740Y003373D01*
X003740Y003527D02*
X011941Y003527D01*
X011921Y003686D02*
X003740Y003686D01*
X003740Y003844D02*
X011982Y003844D01*
X012020Y004003D02*
X003740Y004003D01*
X003740Y004161D02*
X012020Y004161D01*
X012020Y004320D02*
X003740Y004320D01*
X003740Y004478D02*
X012020Y004478D01*
X012020Y004637D02*
X003740Y004637D01*
X003740Y004795D02*
X012020Y004795D01*
X012020Y004954D02*
X010453Y004954D01*
X010657Y005112D02*
X012020Y005112D01*
X012020Y005271D02*
X010728Y005271D01*
X010740Y005429D02*
X012020Y005429D01*
X012020Y005588D02*
X010740Y005588D01*
X010740Y005746D02*
X012020Y005746D01*
X012020Y005905D02*
X010740Y005905D01*
X010740Y006063D02*
X012020Y006063D01*
X012020Y006222D02*
X010740Y006222D01*
X010740Y006380D02*
X012020Y006380D01*
X012020Y006539D02*
X010740Y006539D01*
X010740Y006697D02*
X012020Y006697D01*
X012020Y006856D02*
X010740Y006856D01*
X010740Y007014D02*
X012020Y007014D01*
X012020Y007173D02*
X010740Y007173D01*
X010740Y007331D02*
X012020Y007331D01*
X012020Y007490D02*
X010740Y007490D01*
X010740Y007648D02*
X012020Y007648D01*
X012020Y007807D02*
X010740Y007807D01*
X010740Y007965D02*
X012020Y007965D01*
X012020Y008124D02*
X010740Y008124D01*
X010740Y008282D02*
X012020Y008282D01*
X012020Y008441D02*
X010740Y008441D01*
X010740Y008599D02*
X012020Y008599D01*
X012020Y008758D02*
X010740Y008758D01*
X010740Y008916D02*
X012020Y008916D01*
X012020Y009075D02*
X010740Y009075D01*
X010740Y009233D02*
X012020Y009233D01*
X012020Y009392D02*
X010740Y009392D01*
X010740Y009550D02*
X012077Y009550D01*
X012236Y009709D02*
X010740Y009709D01*
X010740Y009867D02*
X012423Y009867D01*
X012510Y009643D02*
X014510Y009643D01*
X014909Y009392D02*
X015110Y009392D01*
X015050Y009453D02*
X015319Y009183D01*
X015700Y009183D01*
X015970Y009453D01*
X015970Y009834D01*
X015700Y010103D01*
X015319Y010103D01*
X015050Y009834D01*
X015050Y009453D01*
X015050Y009550D02*
X014970Y009550D01*
X014970Y009709D02*
X015050Y009709D01*
X015083Y009867D02*
X014936Y009867D01*
X014778Y010026D02*
X015241Y010026D01*
X015319Y010183D02*
X015700Y010183D01*
X015970Y010453D01*
X015970Y010834D01*
X015700Y011103D01*
X015319Y011103D01*
X015050Y010834D01*
X015050Y010453D01*
X015319Y010183D01*
X015318Y010184D02*
X014701Y010184D01*
X014700Y010183D02*
X014970Y010453D01*
X014970Y010834D01*
X014700Y011103D01*
X014319Y011103D01*
X014050Y010834D01*
X014050Y010453D01*
X014319Y010183D01*
X014700Y010183D01*
X014860Y010343D02*
X015159Y010343D01*
X015050Y010501D02*
X014970Y010501D01*
X014970Y010660D02*
X015050Y010660D01*
X015050Y010818D02*
X014970Y010818D01*
X014827Y010977D02*
X015192Y010977D01*
X015319Y011183D02*
X015700Y011183D01*
X015970Y011453D01*
X015970Y011834D01*
X015700Y012103D01*
X015319Y012103D01*
X015050Y011834D01*
X015050Y011453D01*
X015319Y011183D01*
X015208Y011294D02*
X014811Y011294D01*
X014700Y011183D02*
X014970Y011453D01*
X014970Y011834D01*
X014700Y012103D01*
X014319Y012103D01*
X014050Y011834D01*
X014050Y011453D01*
X014319Y011183D01*
X014700Y011183D01*
X014969Y011452D02*
X015050Y011452D01*
X015050Y011611D02*
X014970Y011611D01*
X014970Y011769D02*
X015050Y011769D01*
X015143Y011928D02*
X014876Y011928D01*
X014717Y012086D02*
X015302Y012086D01*
X015319Y012183D02*
X015700Y012183D01*
X015970Y012453D01*
X015970Y012834D01*
X015700Y013103D01*
X015319Y013103D01*
X015050Y012834D01*
X015050Y012453D01*
X015319Y012183D01*
X015257Y012245D02*
X014762Y012245D01*
X014700Y012183D02*
X014970Y012453D01*
X014970Y012834D01*
X014700Y013103D01*
X014319Y013103D01*
X014050Y012834D01*
X014050Y012453D01*
X014319Y012183D01*
X014700Y012183D01*
X014920Y012403D02*
X015099Y012403D01*
X015050Y012562D02*
X014970Y012562D01*
X014970Y012720D02*
X015050Y012720D01*
X015094Y012879D02*
X014925Y012879D01*
X014766Y013037D02*
X015253Y013037D01*
X015766Y013037D02*
X016022Y013037D01*
X016022Y012879D02*
X015925Y012879D01*
X015970Y012720D02*
X016022Y012720D01*
X016022Y012562D02*
X015970Y012562D01*
X015920Y012403D02*
X016022Y012403D01*
X016022Y012245D02*
X015762Y012245D01*
X015717Y012086D02*
X016022Y012086D01*
X016022Y011928D02*
X015876Y011928D01*
X015970Y011769D02*
X016022Y011769D01*
X016022Y011611D02*
X015970Y011611D01*
X015969Y011452D02*
X016022Y011452D01*
X016022Y011294D02*
X015811Y011294D01*
X016022Y011135D02*
X010740Y011135D01*
X010740Y010977D02*
X014192Y010977D01*
X014050Y010818D02*
X010740Y010818D01*
X010740Y010660D02*
X014050Y010660D01*
X014050Y010501D02*
X010740Y010501D01*
X010740Y010343D02*
X014159Y010343D01*
X014318Y010184D02*
X010740Y010184D01*
X010740Y010026D02*
X014241Y010026D01*
X014110Y009392D02*
X012597Y009392D01*
X012500Y009233D02*
X014269Y009233D01*
X014319Y009103D02*
X014050Y008834D01*
X014050Y008453D01*
X014319Y008183D01*
X014700Y008183D01*
X014970Y008453D01*
X014970Y008834D01*
X014700Y009103D01*
X014319Y009103D01*
X014290Y009075D02*
X012500Y009075D01*
X012500Y008916D02*
X014132Y008916D01*
X014050Y008758D02*
X012500Y008758D01*
X012500Y008599D02*
X014050Y008599D01*
X014061Y008441D02*
X012500Y008441D01*
X012500Y008282D02*
X014220Y008282D01*
X014311Y008123D02*
X014030Y007842D01*
X014030Y007663D01*
X014490Y007663D01*
X014490Y008123D01*
X014311Y008123D01*
X014530Y008123D02*
X014530Y007663D01*
X014990Y007663D01*
X014990Y007842D01*
X014708Y008123D01*
X014530Y008123D01*
X014530Y007965D02*
X014490Y007965D01*
X014490Y007807D02*
X014530Y007807D01*
X014530Y007663D02*
X014490Y007663D01*
X014490Y007623D01*
X014530Y007623D01*
X014530Y007663D01*
X014530Y007648D02*
X015050Y007648D01*
X014990Y007623D02*
X014530Y007623D01*
X014530Y007163D01*
X014708Y007163D01*
X014990Y007444D01*
X014990Y007623D01*
X014990Y007490D02*
X015050Y007490D01*
X015050Y007453D02*
X015319Y007183D01*
X015700Y007183D01*
X015970Y007453D01*
X015970Y007834D01*
X015700Y008103D01*
X015319Y008103D01*
X015050Y007834D01*
X015050Y007453D01*
X015171Y007331D02*
X014876Y007331D01*
X014718Y007173D02*
X016022Y007173D01*
X016022Y007331D02*
X015848Y007331D01*
X015970Y007490D02*
X016022Y007490D01*
X016022Y007648D02*
X015970Y007648D01*
X015970Y007807D02*
X016022Y007807D01*
X016022Y007965D02*
X015838Y007965D01*
X016022Y008124D02*
X012500Y008124D01*
X012500Y007965D02*
X014153Y007965D01*
X014030Y007807D02*
X012500Y007807D01*
X012500Y007648D02*
X014490Y007648D01*
X014490Y007623D02*
X014030Y007623D01*
X014030Y007444D01*
X014311Y007163D01*
X014490Y007163D01*
X014490Y007623D01*
X014490Y007490D02*
X014530Y007490D01*
X014530Y007331D02*
X014490Y007331D01*
X014490Y007173D02*
X014530Y007173D01*
X014301Y007173D02*
X012500Y007173D01*
X012500Y007331D02*
X014143Y007331D01*
X014030Y007490D02*
X012500Y007490D01*
X012500Y007014D02*
X016022Y007014D01*
X016022Y006856D02*
X012500Y006856D01*
X012500Y006697D02*
X016022Y006697D01*
X016022Y006539D02*
X012500Y006539D01*
X012500Y006380D02*
X016022Y006380D01*
X016022Y006222D02*
X012500Y006222D01*
X012500Y006063D02*
X016022Y006063D01*
X016022Y005905D02*
X012500Y005905D01*
X012500Y005746D02*
X016022Y005746D01*
X016022Y005588D02*
X012500Y005588D01*
X012500Y005429D02*
X016022Y005429D01*
X016022Y005271D02*
X012500Y005271D01*
X012500Y005112D02*
X016022Y005112D01*
X016022Y004954D02*
X012500Y004954D01*
X012500Y004795D02*
X016022Y004795D01*
X016022Y004637D02*
X012500Y004637D01*
X012500Y004478D02*
X016022Y004478D01*
X016022Y004320D02*
X012500Y004320D01*
X012500Y004161D02*
X016022Y004161D01*
X016022Y004003D02*
X012500Y004003D01*
X012537Y003844D02*
X016022Y003844D01*
X016022Y003686D02*
X012598Y003686D01*
X012578Y003527D02*
X016022Y003527D01*
X012260Y003643D02*
X012260Y009393D01*
X012510Y009643D01*
X014208Y011294D02*
X010740Y011294D01*
X010740Y011452D02*
X014050Y011452D01*
X014050Y011611D02*
X010740Y011611D01*
X010740Y011769D02*
X014050Y011769D01*
X014143Y011928D02*
X010740Y011928D01*
X010740Y012086D02*
X014302Y012086D01*
X014257Y012245D02*
X010740Y012245D01*
X010740Y012403D02*
X014099Y012403D01*
X014050Y012562D02*
X010740Y012562D01*
X010740Y012720D02*
X014050Y012720D01*
X014094Y012879D02*
X010740Y012879D01*
X010740Y013037D02*
X014253Y013037D01*
X015827Y010977D02*
X016022Y010977D01*
X016022Y010818D02*
X015970Y010818D01*
X015970Y010660D02*
X016022Y010660D01*
X016022Y010501D02*
X015970Y010501D01*
X016022Y010343D02*
X015860Y010343D01*
X015701Y010184D02*
X016022Y010184D01*
X016022Y010026D02*
X015778Y010026D01*
X015936Y009867D02*
X016022Y009867D01*
X016022Y009709D02*
X015970Y009709D01*
X015970Y009550D02*
X016022Y009550D01*
X016022Y009392D02*
X015909Y009392D01*
X016022Y009233D02*
X015750Y009233D01*
X015700Y009103D02*
X015319Y009103D01*
X015050Y008834D01*
X015050Y008453D01*
X015319Y008183D01*
X015700Y008183D01*
X015970Y008453D01*
X015970Y008834D01*
X015700Y009103D01*
X015729Y009075D02*
X016022Y009075D01*
X016022Y008916D02*
X015887Y008916D01*
X015970Y008758D02*
X016022Y008758D01*
X016022Y008599D02*
X015970Y008599D01*
X015958Y008441D02*
X016022Y008441D01*
X016022Y008282D02*
X015799Y008282D01*
X015220Y008282D02*
X014799Y008282D01*
X014958Y008441D02*
X015061Y008441D01*
X015050Y008599D02*
X014970Y008599D01*
X014970Y008758D02*
X015050Y008758D01*
X015132Y008916D02*
X014887Y008916D01*
X014729Y009075D02*
X015290Y009075D01*
X015269Y009233D02*
X014750Y009233D01*
X014866Y007965D02*
X015181Y007965D01*
X015050Y007807D02*
X014990Y007807D01*
X005566Y004954D02*
X003740Y004954D01*
X003740Y005112D02*
X005362Y005112D01*
X005291Y005271D02*
X003740Y005271D01*
X003740Y005429D02*
X005280Y005429D01*
X005280Y005588D02*
X003740Y005588D01*
X003740Y005746D02*
X005280Y005746D01*
X005280Y005905D02*
X003740Y005905D01*
X003740Y006063D02*
X005280Y006063D01*
X005280Y006222D02*
X003740Y006222D01*
X003740Y006380D02*
X005280Y006380D01*
X005280Y006539D02*
X003740Y006539D01*
X003740Y006697D02*
X005280Y006697D01*
X005280Y006856D02*
X003740Y006856D01*
X003740Y007014D02*
X005280Y007014D01*
X005280Y007173D02*
X003740Y007173D01*
X003740Y007331D02*
X005280Y007331D01*
X005280Y007490D02*
X003740Y007490D01*
X003740Y007648D02*
X005280Y007648D01*
X005280Y007807D02*
X003740Y007807D01*
X003740Y007965D02*
X005280Y007965D01*
X005280Y008124D02*
X003740Y008124D01*
X003740Y008282D02*
X005280Y008282D01*
X005280Y008441D02*
X003740Y008441D01*
X003740Y008599D02*
X005280Y008599D01*
X005280Y008758D02*
X003740Y008758D01*
X003740Y008916D02*
X005280Y008916D01*
X005280Y009075D02*
X003740Y009075D01*
X003740Y009233D02*
X005280Y009233D01*
X005280Y009392D02*
X003740Y009392D01*
X003740Y009550D02*
X005280Y009550D01*
X005280Y009709D02*
X003740Y009709D01*
X003740Y009867D02*
X005280Y009867D01*
X005280Y010026D02*
X003740Y010026D01*
X003740Y010184D02*
X005280Y010184D01*
X005280Y010343D02*
X003740Y010343D01*
X003740Y010501D02*
X005280Y010501D01*
X005280Y010660D02*
X003740Y010660D01*
X003740Y010818D02*
X005280Y010818D01*
X005280Y010977D02*
X003740Y010977D01*
X003740Y011135D02*
X005280Y011135D01*
X005280Y011294D02*
X003740Y011294D01*
X003740Y011452D02*
X005280Y011452D01*
X005280Y011611D02*
X003740Y011611D01*
X003740Y011769D02*
X005280Y011769D01*
X005280Y011928D02*
X003740Y011928D01*
X003740Y012086D02*
X005280Y012086D01*
X005280Y012245D02*
X003740Y012245D01*
X003740Y012403D02*
X005280Y012403D01*
X005280Y012562D02*
X003740Y012562D01*
X003740Y012720D02*
X005280Y012720D01*
X005280Y012879D02*
X003740Y012879D01*
X003740Y013037D02*
X005280Y013037D01*
D13*
X015760Y003643D03*
M02*
