G75*
%MOIN*%
%OFA0B0*%
%FSLAX24Y24*%
%IPPOS*%
%LPD*%
%AMOC8*
5,1,8,0,0,1.08239X$1,22.5*
%
%ADD10C,0.0050*%
%ADD11C,0.0030*%
%ADD12C,0.0060*%
%ADD13C,0.0040*%
%ADD14C,0.0020*%
D10*
X012665Y003493D02*
X013039Y003493D01*
X013227Y003587D02*
X013227Y003773D01*
X013320Y003867D01*
X013507Y003867D01*
X013600Y003773D01*
X013600Y003680D01*
X013227Y003680D01*
X013227Y003587D02*
X013320Y003493D01*
X013507Y003493D01*
X013789Y003493D02*
X013789Y003867D01*
X013975Y003867D02*
X013789Y003680D01*
X013975Y003867D02*
X014069Y003867D01*
X014257Y003773D02*
X014257Y003587D01*
X014350Y003493D01*
X014537Y003493D01*
X014631Y003587D01*
X014631Y003773D01*
X014537Y003867D01*
X014350Y003867D01*
X014257Y003773D01*
X014819Y003493D02*
X015193Y004054D01*
X014819Y004054D02*
X015193Y003493D01*
X013039Y003960D02*
X012665Y003587D01*
X012665Y003493D01*
X012665Y004054D02*
X013039Y004054D01*
X013039Y003960D01*
D11*
X003988Y003458D02*
X003741Y003458D01*
X003865Y003458D02*
X003865Y003829D01*
X003741Y003705D01*
X004110Y003520D02*
X004110Y003458D01*
X004171Y003458D01*
X004171Y003520D01*
X004110Y003520D01*
X004294Y003458D02*
X004541Y003705D01*
X004541Y003767D01*
X004479Y003829D01*
X004355Y003829D01*
X004294Y003767D01*
X004294Y003458D02*
X004541Y003458D01*
X012033Y007773D02*
X012350Y007741D01*
X012384Y007634D01*
X012436Y007535D01*
X012234Y007287D01*
X012404Y007118D01*
X012651Y007319D01*
X012751Y007268D01*
X012857Y007234D01*
X012890Y006916D01*
X013129Y006916D01*
X013162Y007234D01*
X013268Y007268D01*
X013368Y007319D01*
X013615Y007118D01*
X013785Y007287D01*
X013583Y007535D01*
X013635Y007634D01*
X013294Y007776D01*
X013265Y007722D01*
X013227Y007676D01*
X013180Y007638D01*
X013127Y007609D01*
X013070Y007592D01*
X013010Y007586D01*
X012947Y007592D01*
X012887Y007611D01*
X012832Y007642D01*
X012784Y007684D01*
X012746Y007735D01*
X012719Y007792D01*
X012705Y007853D01*
X012703Y007916D01*
X012714Y007978D01*
X012738Y008037D01*
X012773Y008090D01*
X012818Y008134D01*
X012871Y008168D01*
X012930Y008190D01*
X012992Y008200D01*
X013055Y008197D01*
X013117Y008182D01*
X013173Y008154D01*
X013223Y008115D01*
X013264Y008067D01*
X013294Y008011D01*
X013635Y008152D01*
X013583Y008252D01*
X013785Y008499D01*
X013615Y008669D01*
X013368Y008467D01*
X013268Y008518D01*
X013162Y008553D01*
X013129Y008870D01*
X012890Y008870D01*
X012857Y008553D01*
X012751Y008518D01*
X012651Y008467D01*
X012404Y008669D01*
X012234Y008499D01*
X012436Y008252D01*
X012384Y008152D01*
X012350Y008046D01*
X012033Y008013D01*
X012033Y007773D01*
X012033Y007795D02*
X012718Y007795D01*
X012712Y007824D02*
X012033Y007824D01*
X012033Y007852D02*
X012705Y007852D01*
X012704Y007881D02*
X012033Y007881D01*
X012033Y007909D02*
X012703Y007909D01*
X012707Y007938D02*
X012033Y007938D01*
X012033Y007966D02*
X012712Y007966D01*
X012721Y007995D02*
X012033Y007995D01*
X012132Y008023D02*
X012732Y008023D01*
X012747Y008052D02*
X012352Y008052D01*
X012361Y008080D02*
X012767Y008080D01*
X012792Y008109D02*
X012370Y008109D01*
X012380Y008137D02*
X012823Y008137D01*
X012868Y008166D02*
X012391Y008166D01*
X012406Y008194D02*
X012954Y008194D01*
X013067Y008194D02*
X013613Y008194D01*
X013628Y008166D02*
X013149Y008166D01*
X013194Y008137D02*
X013599Y008137D01*
X013530Y008109D02*
X013228Y008109D01*
X013252Y008080D02*
X013461Y008080D01*
X013392Y008052D02*
X013272Y008052D01*
X013287Y008023D02*
X013323Y008023D01*
X013315Y007767D02*
X013289Y007767D01*
X013274Y007738D02*
X013384Y007738D01*
X013452Y007710D02*
X013255Y007710D01*
X013232Y007681D02*
X013521Y007681D01*
X013590Y007653D02*
X013199Y007653D01*
X013156Y007624D02*
X013630Y007624D01*
X013615Y007596D02*
X013083Y007596D01*
X012935Y007596D02*
X012404Y007596D01*
X012390Y007624D02*
X012864Y007624D01*
X012820Y007653D02*
X012378Y007653D01*
X012369Y007681D02*
X012787Y007681D01*
X012765Y007710D02*
X012360Y007710D01*
X012351Y007738D02*
X012744Y007738D01*
X012731Y007767D02*
X012097Y007767D01*
X012419Y007567D02*
X013600Y007567D01*
X013585Y007539D02*
X012434Y007539D01*
X012416Y007510D02*
X013603Y007510D01*
X013626Y007482D02*
X012393Y007482D01*
X012369Y007453D02*
X013650Y007453D01*
X013673Y007425D02*
X012346Y007425D01*
X012323Y007396D02*
X013696Y007396D01*
X013719Y007368D02*
X012300Y007368D01*
X012276Y007339D02*
X013743Y007339D01*
X013766Y007311D02*
X013379Y007311D01*
X013351Y007311D02*
X012668Y007311D01*
X012640Y007311D02*
X012253Y007311D01*
X012239Y007282D02*
X012605Y007282D01*
X012570Y007254D02*
X012267Y007254D01*
X012296Y007225D02*
X012536Y007225D01*
X012501Y007197D02*
X012324Y007197D01*
X012353Y007168D02*
X012466Y007168D01*
X012431Y007140D02*
X012381Y007140D01*
X012723Y007282D02*
X013296Y007282D01*
X013224Y007254D02*
X012795Y007254D01*
X012858Y007225D02*
X013161Y007225D01*
X013158Y007197D02*
X012861Y007197D01*
X012864Y007168D02*
X013155Y007168D01*
X013152Y007140D02*
X012867Y007140D01*
X012870Y007111D02*
X013149Y007111D01*
X013146Y007083D02*
X012873Y007083D01*
X012876Y007054D02*
X013143Y007054D01*
X013141Y007026D02*
X012878Y007026D01*
X012881Y006997D02*
X013138Y006997D01*
X013135Y006969D02*
X012884Y006969D01*
X012887Y006940D02*
X013132Y006940D01*
X013449Y007254D02*
X013752Y007254D01*
X013780Y007282D02*
X013414Y007282D01*
X013484Y007225D02*
X013723Y007225D01*
X013695Y007197D02*
X013518Y007197D01*
X013553Y007168D02*
X013666Y007168D01*
X013638Y007140D02*
X013588Y007140D01*
X013993Y006942D02*
X014090Y007039D01*
X014090Y006748D01*
X013993Y006748D02*
X014187Y006748D01*
X015765Y006748D02*
X015958Y006942D01*
X015958Y006990D01*
X015910Y007039D01*
X015813Y007039D01*
X015765Y006990D01*
X015765Y006748D02*
X015958Y006748D01*
X015861Y005039D02*
X015764Y005039D01*
X015715Y004990D01*
X015715Y004797D01*
X015909Y004990D01*
X015909Y004797D01*
X015861Y004748D01*
X015764Y004748D01*
X015715Y004797D01*
X015614Y004797D02*
X015566Y004748D01*
X015421Y004748D01*
X015421Y005039D01*
X015566Y005039D01*
X015614Y004990D01*
X015614Y004797D01*
X015861Y005039D02*
X015909Y004990D01*
X014452Y005079D02*
X014205Y005079D01*
X014205Y004893D01*
X014329Y004955D01*
X014391Y004955D01*
X014452Y004893D01*
X014452Y004770D01*
X014391Y004708D01*
X014267Y004708D01*
X014205Y004770D01*
X014083Y004770D02*
X014083Y004708D01*
X014021Y004708D01*
X014021Y004770D01*
X014083Y004770D01*
X013900Y004708D02*
X013653Y004708D01*
X013776Y004708D02*
X013776Y005079D01*
X013653Y004955D01*
X013532Y004893D02*
X013285Y004893D01*
X013163Y004770D02*
X013101Y004708D01*
X012978Y004708D01*
X012916Y004770D01*
X013163Y005017D01*
X013163Y004770D01*
X012916Y004770D02*
X012916Y005017D01*
X012978Y005079D01*
X013101Y005079D01*
X013163Y005017D01*
X012794Y004770D02*
X012794Y004708D01*
X012732Y004708D01*
X012732Y004770D01*
X012794Y004770D01*
X012611Y004708D02*
X012364Y004708D01*
X012487Y004708D02*
X012487Y005079D01*
X012364Y004955D01*
X012421Y008223D02*
X013598Y008223D01*
X013584Y008251D02*
X012435Y008251D01*
X012413Y008280D02*
X013606Y008280D01*
X013629Y008308D02*
X012390Y008308D01*
X012366Y008337D02*
X013653Y008337D01*
X013676Y008365D02*
X012343Y008365D01*
X012320Y008394D02*
X013699Y008394D01*
X013722Y008422D02*
X012297Y008422D01*
X012273Y008451D02*
X013746Y008451D01*
X013769Y008479D02*
X013383Y008479D01*
X013344Y008479D02*
X012675Y008479D01*
X012636Y008479D02*
X012250Y008479D01*
X012242Y008508D02*
X012601Y008508D01*
X012566Y008536D02*
X012271Y008536D01*
X012299Y008565D02*
X012531Y008565D01*
X012496Y008593D02*
X012328Y008593D01*
X012356Y008622D02*
X012461Y008622D01*
X012426Y008650D02*
X012385Y008650D01*
X012730Y008508D02*
X013289Y008508D01*
X013213Y008536D02*
X012806Y008536D01*
X012859Y008565D02*
X013160Y008565D01*
X013158Y008593D02*
X012861Y008593D01*
X012864Y008622D02*
X013155Y008622D01*
X013152Y008650D02*
X012867Y008650D01*
X012870Y008679D02*
X013149Y008679D01*
X013146Y008707D02*
X012873Y008707D01*
X012876Y008736D02*
X013143Y008736D01*
X013140Y008764D02*
X012879Y008764D01*
X012882Y008793D02*
X013137Y008793D01*
X013134Y008821D02*
X012885Y008821D01*
X012887Y008850D02*
X013132Y008850D01*
X013418Y008508D02*
X013777Y008508D01*
X013748Y008536D02*
X013453Y008536D01*
X013488Y008565D02*
X013720Y008565D01*
X013691Y008593D02*
X013523Y008593D01*
X013558Y008622D02*
X013663Y008622D01*
X013634Y008650D02*
X013593Y008650D01*
D12*
X014010Y008893D02*
X014010Y008393D01*
X014260Y008143D01*
X015760Y008143D01*
X016010Y008393D01*
X016010Y008893D01*
X015760Y009143D01*
X014260Y009143D01*
X014010Y009393D01*
X014010Y009893D01*
X014260Y010143D01*
X015760Y010143D01*
X016010Y010393D01*
X016010Y010893D01*
X015760Y011143D01*
X014260Y011143D01*
X014010Y011393D01*
X014010Y011893D01*
X014260Y012143D01*
X014010Y012393D01*
X014010Y012893D01*
X014260Y013143D01*
X015760Y013143D01*
X016010Y012893D01*
X016010Y012393D01*
X015760Y012143D01*
X014260Y012143D01*
X014260Y011143D02*
X014010Y010893D01*
X014010Y010393D01*
X014260Y010143D01*
X014260Y009143D02*
X014010Y008893D01*
X014260Y008143D02*
X014010Y007893D01*
X014010Y007393D01*
X014260Y007143D01*
X015760Y007143D01*
X016010Y007393D01*
X016010Y007893D01*
X015760Y008143D01*
X015760Y009143D02*
X016010Y009393D01*
X016010Y009893D01*
X015760Y010143D01*
X015760Y011143D02*
X016010Y011393D01*
X016010Y011893D01*
X015760Y012143D01*
X015560Y006293D02*
X014460Y006293D01*
X014443Y006291D01*
X014426Y006287D01*
X014410Y006280D01*
X014396Y006270D01*
X014383Y006257D01*
X014373Y006243D01*
X014366Y006227D01*
X014362Y006210D01*
X014360Y006193D01*
X014360Y005593D01*
X014362Y005576D01*
X014366Y005559D01*
X014373Y005543D01*
X014383Y005529D01*
X014396Y005516D01*
X014410Y005506D01*
X014426Y005499D01*
X014443Y005495D01*
X014460Y005493D01*
X015560Y005493D01*
X015577Y005495D01*
X015594Y005499D01*
X015610Y005506D01*
X015624Y005516D01*
X015637Y005529D01*
X015647Y005543D01*
X015654Y005559D01*
X015658Y005576D01*
X015660Y005593D01*
X015660Y006193D01*
X015658Y006210D01*
X015654Y006227D01*
X015647Y006243D01*
X015637Y006257D01*
X015624Y006270D01*
X015610Y006280D01*
X015594Y006287D01*
X015577Y006291D01*
X015560Y006293D01*
D13*
X014053Y006074D02*
X013933Y006014D01*
X013813Y005893D01*
X013993Y005893D01*
X014053Y005833D01*
X014053Y005773D01*
X013993Y005713D01*
X013873Y005713D01*
X013813Y005773D01*
X013813Y005893D01*
X013689Y005773D02*
X013689Y005713D01*
X013629Y005713D01*
X013629Y005773D01*
X013689Y005773D01*
X013501Y005713D02*
X013260Y005713D01*
X013380Y005713D02*
X013380Y006074D01*
X013260Y005954D01*
D14*
X014578Y006783D02*
X014724Y007003D01*
X014799Y007003D02*
X014799Y006783D01*
X014945Y006783D01*
X015020Y006783D02*
X015020Y007003D01*
X015130Y007003D01*
X015166Y006967D01*
X015166Y006893D01*
X015130Y006857D01*
X015020Y006857D01*
X015241Y006820D02*
X015277Y006783D01*
X015351Y006783D01*
X015387Y006820D01*
X015241Y006820D02*
X015241Y006967D01*
X015277Y007003D01*
X015351Y007003D01*
X015387Y006967D01*
X014724Y006783D02*
X014578Y007003D01*
M02*
