G75*
%MOIN*%
%OFA0B0*%
%FSLAX24Y24*%
%IPPOS*%
%LPD*%
%AMOC8*
5,1,8,0,0,1.08239X$1,22.5*
%
%ADD10R,0.0512X0.0591*%
%ADD11R,0.1000X0.0500*%
%ADD12R,0.0500X0.1000*%
%ADD13R,0.0472X0.0472*%
%ADD14R,0.0460X0.0630*%
%ADD15OC8,0.0600*%
%ADD16C,0.0160*%
%ADD17C,0.0357*%
%ADD18R,0.0396X0.0396*%
D10*
X012635Y009643D03*
X013384Y009643D03*
X013384Y010643D03*
X012635Y010643D03*
X012635Y011643D03*
X013384Y011643D03*
X013384Y012643D03*
X012635Y012643D03*
D11*
X011260Y012643D03*
X011260Y011643D03*
X011260Y010643D03*
X011260Y009643D03*
X011260Y008643D03*
X011260Y007643D03*
X011260Y006643D03*
X011260Y005643D03*
X011260Y004643D03*
X004760Y004643D03*
X004760Y005643D03*
X004760Y006643D03*
X004760Y007643D03*
X004760Y008643D03*
X004760Y009643D03*
X004760Y010643D03*
X004760Y011643D03*
X004760Y012643D03*
D12*
X006010Y004393D03*
X007010Y004393D03*
X008010Y004393D03*
X009010Y004393D03*
X010010Y004393D03*
D13*
X015010Y004893D03*
D14*
X015310Y005893D03*
X014710Y005893D03*
D15*
X014510Y007643D03*
X015510Y007643D03*
X015510Y008643D03*
X014510Y008643D03*
X014510Y009643D03*
X015510Y009643D03*
X015510Y010643D03*
X014510Y010643D03*
X014510Y011643D03*
X015510Y011643D03*
X015510Y012643D03*
X014510Y012643D03*
D16*
X012260Y003393D02*
X003760Y003393D01*
X003760Y012643D01*
X004760Y012643D01*
X005280Y012233D02*
X004193Y012233D01*
X004100Y012327D01*
X004100Y012403D01*
X004000Y012403D01*
X004000Y003633D01*
X011921Y003633D01*
X011921Y003711D01*
X011973Y003835D01*
X012068Y003930D01*
X012192Y003982D01*
X012327Y003982D01*
X012451Y003930D01*
X012546Y003835D01*
X012598Y003711D01*
X012598Y003576D01*
X012546Y003452D01*
X012500Y003405D01*
X012500Y003373D01*
X016022Y003373D01*
X016022Y005816D01*
X015895Y005690D01*
X015807Y005653D01*
X015700Y005653D01*
X015700Y005512D01*
X015606Y005418D01*
X015013Y005418D01*
X015010Y005422D01*
X015006Y005418D01*
X014413Y005418D01*
X014320Y005512D01*
X014320Y005653D01*
X013462Y005653D01*
X013374Y005690D01*
X013306Y005757D01*
X013250Y005814D01*
X013250Y005243D01*
X013359Y005133D01*
X014613Y005133D01*
X014613Y005196D01*
X014707Y005289D01*
X015312Y005289D01*
X015406Y005196D01*
X015406Y004591D01*
X015312Y004497D01*
X014707Y004497D01*
X014613Y004591D01*
X014613Y004653D01*
X013212Y004653D01*
X013124Y004690D01*
X013056Y004757D01*
X012806Y005007D01*
X012770Y005096D01*
X012770Y006294D01*
X012660Y006403D01*
X011920Y006403D01*
X011920Y006327D01*
X011826Y006233D01*
X010740Y006233D01*
X010740Y006053D01*
X011826Y006053D01*
X011920Y005960D01*
X011920Y005327D01*
X011826Y005233D01*
X010713Y005233D01*
X010666Y005121D01*
X010531Y004986D01*
X010420Y004940D01*
X010420Y003827D01*
X010326Y003733D01*
X009693Y003733D01*
X009600Y003827D01*
X009600Y004913D01*
X009420Y004913D01*
X009420Y003827D01*
X009326Y003733D01*
X008693Y003733D01*
X008600Y003827D01*
X008600Y004913D01*
X008420Y004913D01*
X008420Y003827D01*
X008326Y003733D01*
X007693Y003733D01*
X007600Y003827D01*
X007600Y004913D01*
X007420Y004913D01*
X007420Y003827D01*
X007326Y003733D01*
X006693Y003733D01*
X006600Y003827D01*
X006600Y004913D01*
X006420Y004913D01*
X006420Y003827D01*
X006326Y003733D01*
X005693Y003733D01*
X005600Y003827D01*
X005600Y004940D01*
X005488Y004986D01*
X005353Y005121D01*
X005306Y005233D01*
X004193Y005233D01*
X004100Y005327D01*
X004100Y005960D01*
X004193Y006053D01*
X005280Y006053D01*
X005280Y006233D01*
X004193Y006233D01*
X004100Y006327D01*
X004100Y006960D01*
X004193Y007053D01*
X005280Y007053D01*
X005280Y007233D01*
X004193Y007233D01*
X004100Y007327D01*
X004100Y007960D01*
X004193Y008053D01*
X005280Y008053D01*
X005280Y008233D01*
X004193Y008233D01*
X004100Y008327D01*
X004100Y008960D01*
X004193Y009053D01*
X005280Y009053D01*
X005280Y009233D01*
X004193Y009233D01*
X004100Y009327D01*
X004100Y009960D01*
X004193Y010053D01*
X005280Y010053D01*
X005280Y010233D01*
X004193Y010233D01*
X004100Y010327D01*
X004100Y010960D01*
X004193Y011053D01*
X005280Y011053D01*
X005280Y011213D01*
X004805Y011213D01*
X004805Y011598D01*
X004715Y011598D01*
X004715Y011213D01*
X004236Y011213D01*
X004190Y011226D01*
X004149Y011249D01*
X004115Y011283D01*
X004092Y011324D01*
X004080Y011370D01*
X004080Y011598D01*
X004715Y011598D01*
X004715Y011688D01*
X004715Y012073D01*
X004236Y012073D01*
X004190Y012061D01*
X004149Y012037D01*
X004115Y012004D01*
X004092Y011963D01*
X004080Y011917D01*
X004080Y011688D01*
X004715Y011688D01*
X004805Y011688D01*
X004805Y012073D01*
X005280Y012073D01*
X005280Y012233D01*
X005280Y012086D02*
X004000Y012086D01*
X004000Y011928D02*
X004082Y011928D01*
X004080Y011769D02*
X004000Y011769D01*
X004000Y011611D02*
X004715Y011611D01*
X004715Y011452D02*
X004805Y011452D01*
X004805Y011294D02*
X004715Y011294D01*
X005280Y011135D02*
X004000Y011135D01*
X004000Y010977D02*
X004117Y010977D01*
X004100Y010818D02*
X004000Y010818D01*
X004000Y010660D02*
X004100Y010660D01*
X004100Y010501D02*
X004000Y010501D01*
X004000Y010343D02*
X004100Y010343D01*
X004000Y010184D02*
X005280Y010184D01*
X004166Y010026D02*
X004000Y010026D01*
X004000Y009867D02*
X004100Y009867D01*
X004100Y009709D02*
X004000Y009709D01*
X004000Y009550D02*
X004100Y009550D01*
X004100Y009392D02*
X004000Y009392D01*
X004000Y009233D02*
X004193Y009233D01*
X004000Y009075D02*
X005280Y009075D01*
X005280Y008124D02*
X004000Y008124D01*
X004000Y007965D02*
X004105Y007965D01*
X004100Y007807D02*
X004000Y007807D01*
X004000Y007648D02*
X004100Y007648D01*
X004100Y007490D02*
X004000Y007490D01*
X004000Y007331D02*
X004100Y007331D01*
X004000Y007173D02*
X005280Y007173D01*
X005280Y006222D02*
X004000Y006222D01*
X004000Y006380D02*
X004100Y006380D01*
X004100Y006539D02*
X004000Y006539D01*
X004000Y006697D02*
X004100Y006697D01*
X004100Y006856D02*
X004000Y006856D01*
X004000Y007014D02*
X004154Y007014D01*
X004000Y006063D02*
X005280Y006063D01*
X005362Y005112D02*
X004000Y005112D01*
X004000Y004954D02*
X004100Y004954D01*
X004100Y004960D02*
X004100Y004327D01*
X004193Y004233D01*
X005326Y004233D01*
X005420Y004327D01*
X005420Y004960D01*
X005326Y005053D01*
X004193Y005053D01*
X004100Y004960D01*
X004100Y004795D02*
X004000Y004795D01*
X004000Y004637D02*
X004100Y004637D01*
X004100Y004478D02*
X004000Y004478D01*
X004000Y004320D02*
X004107Y004320D01*
X004000Y004161D02*
X005600Y004161D01*
X005600Y004003D02*
X004000Y004003D01*
X004000Y003844D02*
X005600Y003844D01*
X005600Y004320D02*
X005412Y004320D01*
X005420Y004478D02*
X005600Y004478D01*
X005600Y004637D02*
X005420Y004637D01*
X005420Y004795D02*
X005600Y004795D01*
X005566Y004954D02*
X005420Y004954D01*
X006420Y004795D02*
X006600Y004795D01*
X006600Y004637D02*
X006420Y004637D01*
X006420Y004478D02*
X006600Y004478D01*
X006600Y004320D02*
X006420Y004320D01*
X006420Y004161D02*
X006600Y004161D01*
X006600Y004003D02*
X006420Y004003D01*
X006420Y003844D02*
X006600Y003844D01*
X007420Y003844D02*
X007600Y003844D01*
X007600Y004003D02*
X007420Y004003D01*
X007420Y004161D02*
X007600Y004161D01*
X007600Y004320D02*
X007420Y004320D01*
X007420Y004478D02*
X007600Y004478D01*
X007600Y004637D02*
X007420Y004637D01*
X007420Y004795D02*
X007600Y004795D01*
X008420Y004795D02*
X008600Y004795D01*
X008600Y004637D02*
X008420Y004637D01*
X008420Y004478D02*
X008600Y004478D01*
X008600Y004320D02*
X008420Y004320D01*
X008420Y004161D02*
X008600Y004161D01*
X008600Y004003D02*
X008420Y004003D01*
X008420Y003844D02*
X008600Y003844D01*
X009420Y003844D02*
X009600Y003844D01*
X009600Y004003D02*
X009420Y004003D01*
X009420Y004161D02*
X009600Y004161D01*
X009600Y004320D02*
X009420Y004320D01*
X009420Y004478D02*
X009600Y004478D01*
X009600Y004637D02*
X009420Y004637D01*
X009420Y004795D02*
X009600Y004795D01*
X010420Y004795D02*
X010600Y004795D01*
X010600Y004954D02*
X010453Y004954D01*
X010600Y004960D02*
X010600Y004327D01*
X010693Y004233D01*
X011826Y004233D01*
X011920Y004327D01*
X011920Y004960D01*
X011826Y005053D01*
X010693Y005053D01*
X010600Y004960D01*
X010657Y005112D02*
X012770Y005112D01*
X012770Y005271D02*
X011863Y005271D01*
X011920Y005429D02*
X012770Y005429D01*
X012770Y005588D02*
X011920Y005588D01*
X011920Y005746D02*
X012770Y005746D01*
X012770Y005905D02*
X011920Y005905D01*
X011920Y006380D02*
X012683Y006380D01*
X012770Y006222D02*
X010740Y006222D01*
X010740Y006063D02*
X012770Y006063D01*
X013010Y006393D02*
X013010Y005143D01*
X013260Y004893D01*
X015010Y004893D01*
X015406Y004954D02*
X016022Y004954D01*
X016022Y005112D02*
X015406Y005112D01*
X015331Y005271D02*
X016022Y005271D01*
X016022Y005429D02*
X015617Y005429D01*
X015700Y005588D02*
X016022Y005588D01*
X016022Y005746D02*
X015952Y005746D01*
X015760Y005893D02*
X016010Y006143D01*
X016010Y008393D01*
X015760Y008643D01*
X015510Y008643D01*
X015220Y008282D02*
X014799Y008282D01*
X014700Y008183D02*
X014970Y008453D01*
X014970Y008834D01*
X014700Y009103D01*
X014319Y009103D01*
X014050Y008834D01*
X014050Y008453D01*
X014319Y008183D01*
X014700Y008183D01*
X014708Y008123D02*
X014530Y008123D01*
X014530Y007663D01*
X014990Y007663D01*
X014990Y007842D01*
X014708Y008123D01*
X014490Y008123D02*
X014311Y008123D01*
X014030Y007842D01*
X014030Y007663D01*
X014490Y007663D01*
X014490Y008123D01*
X014490Y007965D02*
X014530Y007965D01*
X014530Y007807D02*
X014490Y007807D01*
X014490Y007663D02*
X014530Y007663D01*
X014530Y007623D01*
X014990Y007623D01*
X014990Y007444D01*
X014708Y007163D01*
X014530Y007163D01*
X014530Y007623D01*
X014490Y007623D01*
X014490Y007163D01*
X014311Y007163D01*
X014030Y007444D01*
X014030Y007623D01*
X014490Y007623D01*
X014490Y007663D01*
X014490Y007648D02*
X013750Y007648D01*
X013750Y007490D02*
X014030Y007490D01*
X014143Y007331D02*
X013750Y007331D01*
X013750Y007173D02*
X014301Y007173D01*
X014490Y007173D02*
X014530Y007173D01*
X014530Y007331D02*
X014490Y007331D01*
X014490Y007490D02*
X014530Y007490D01*
X014530Y007648D02*
X015050Y007648D01*
X015050Y007490D02*
X014990Y007490D01*
X015050Y007453D02*
X015270Y007233D01*
X015270Y006993D01*
X015160Y006883D01*
X013859Y006883D01*
X013750Y006993D01*
X013750Y008441D01*
X013713Y008529D01*
X013645Y008597D01*
X013395Y008847D01*
X013307Y008883D01*
X011920Y008883D01*
X011920Y008960D01*
X011826Y009053D01*
X010740Y009053D01*
X010740Y009233D01*
X011826Y009233D01*
X011920Y009327D01*
X011920Y009403D01*
X012220Y009403D01*
X012220Y009282D01*
X012313Y009188D01*
X012958Y009188D01*
X013010Y009240D01*
X013061Y009188D01*
X013706Y009188D01*
X013799Y009282D01*
X013799Y009720D01*
X013983Y009903D01*
X014119Y009903D01*
X014050Y009834D01*
X014050Y009453D01*
X014319Y009183D01*
X014700Y009183D01*
X014970Y009453D01*
X014970Y009834D01*
X014900Y009903D01*
X015119Y009903D01*
X015050Y009834D01*
X015050Y009453D01*
X015319Y009183D01*
X015700Y009183D01*
X015970Y009453D01*
X015970Y009834D01*
X015737Y010066D01*
X015750Y010096D01*
X015750Y010233D01*
X015970Y010453D01*
X015970Y010834D01*
X015700Y011103D01*
X015319Y011103D01*
X015050Y010834D01*
X015050Y010453D01*
X015119Y010383D01*
X014900Y010383D01*
X014970Y010453D01*
X014970Y010834D01*
X014700Y011103D01*
X014319Y011103D01*
X014099Y010883D01*
X013799Y010883D01*
X013799Y011005D01*
X013706Y011099D01*
X013061Y011099D01*
X013010Y011047D01*
X012958Y011099D01*
X012313Y011099D01*
X012220Y011005D01*
X012220Y010883D01*
X011920Y010883D01*
X011920Y010960D01*
X011826Y011053D01*
X010740Y011053D01*
X010740Y011233D01*
X011826Y011233D01*
X011920Y011327D01*
X011920Y011403D01*
X012220Y011403D01*
X012220Y011282D01*
X012313Y011188D01*
X012958Y011188D01*
X013010Y011240D01*
X013061Y011188D01*
X013706Y011188D01*
X013799Y011282D01*
X013799Y011403D01*
X014099Y011403D01*
X014319Y011183D01*
X014700Y011183D01*
X014970Y011453D01*
X014970Y011834D01*
X014900Y011903D01*
X015119Y011903D01*
X015050Y011834D01*
X015050Y011453D01*
X015319Y011183D01*
X015700Y011183D01*
X015970Y011453D01*
X015970Y011834D01*
X015737Y012066D01*
X015750Y012096D01*
X015750Y012233D01*
X015970Y012453D01*
X015970Y012834D01*
X015700Y013103D01*
X015319Y013103D01*
X015050Y012834D01*
X015050Y012453D01*
X015119Y012383D01*
X014900Y012383D01*
X014970Y012453D01*
X014970Y012834D01*
X014700Y013103D01*
X014319Y013103D01*
X014050Y012834D01*
X014050Y012453D01*
X014119Y012383D01*
X013983Y012383D01*
X013799Y012567D01*
X013799Y013005D01*
X013706Y013099D01*
X013061Y013099D01*
X013010Y013047D01*
X012958Y013099D01*
X012313Y013099D01*
X012220Y013005D01*
X012220Y012883D01*
X011920Y012883D01*
X011920Y012960D01*
X011826Y013053D01*
X010740Y013053D01*
X010740Y013159D01*
X016022Y013159D01*
X016022Y008721D01*
X015970Y008773D01*
X015970Y008834D01*
X015700Y009103D01*
X015319Y009103D01*
X015050Y008834D01*
X015050Y008453D01*
X015319Y008183D01*
X015700Y008183D01*
X015770Y008253D01*
X015770Y008034D01*
X015700Y008103D01*
X015319Y008103D01*
X015050Y007834D01*
X015050Y007453D01*
X015171Y007331D02*
X014876Y007331D01*
X014718Y007173D02*
X015270Y007173D01*
X015270Y007014D02*
X013750Y007014D01*
X013510Y006893D02*
X013760Y006643D01*
X015260Y006643D01*
X015510Y006893D01*
X015510Y007643D01*
X015181Y007965D02*
X014866Y007965D01*
X014990Y007807D02*
X015050Y007807D01*
X015770Y008124D02*
X013750Y008124D01*
X013750Y007965D02*
X014153Y007965D01*
X014030Y007807D02*
X013750Y007807D01*
X013260Y007393D02*
X013260Y006143D01*
X013510Y005893D01*
X014710Y005893D01*
X014320Y005588D02*
X013250Y005588D01*
X013250Y005746D02*
X013317Y005746D01*
X013250Y005429D02*
X014402Y005429D01*
X014688Y005271D02*
X013250Y005271D01*
X012860Y004954D02*
X011920Y004954D01*
X011920Y004795D02*
X013018Y004795D01*
X011920Y004637D02*
X014613Y004637D01*
X015406Y004637D02*
X016022Y004637D01*
X016022Y004478D02*
X011920Y004478D01*
X011912Y004320D02*
X016022Y004320D01*
X016022Y004161D02*
X010420Y004161D01*
X010420Y004003D02*
X016022Y004003D01*
X016022Y003844D02*
X012537Y003844D01*
X012598Y003686D02*
X016022Y003686D01*
X016022Y003527D02*
X012578Y003527D01*
X012260Y003643D02*
X012260Y003393D01*
X011921Y003686D02*
X004000Y003686D01*
X004000Y005271D02*
X004156Y005271D01*
X004100Y005429D02*
X004000Y005429D01*
X004000Y005588D02*
X004100Y005588D01*
X004100Y005746D02*
X004000Y005746D01*
X004000Y005905D02*
X004100Y005905D01*
X004144Y008282D02*
X004000Y008282D01*
X004000Y008441D02*
X004100Y008441D01*
X004100Y008599D02*
X004000Y008599D01*
X004000Y008758D02*
X004100Y008758D01*
X004100Y008916D02*
X004000Y008916D01*
X004000Y011294D02*
X004109Y011294D01*
X004080Y011452D02*
X004000Y011452D01*
X004715Y011769D02*
X004805Y011769D01*
X004805Y011928D02*
X004715Y011928D01*
X004182Y012245D02*
X004000Y012245D01*
X010740Y011135D02*
X016022Y011135D01*
X016022Y010977D02*
X015827Y010977D01*
X015970Y010818D02*
X016022Y010818D01*
X016022Y010660D02*
X015970Y010660D01*
X015970Y010501D02*
X016022Y010501D01*
X016022Y010343D02*
X015860Y010343D01*
X015750Y010184D02*
X016022Y010184D01*
X016022Y010026D02*
X015778Y010026D01*
X015510Y010143D02*
X015510Y010643D01*
X015192Y010977D02*
X014827Y010977D01*
X014970Y010818D02*
X015050Y010818D01*
X015050Y010660D02*
X014970Y010660D01*
X014970Y010501D02*
X015050Y010501D01*
X014510Y010643D02*
X013384Y010643D01*
X013799Y010977D02*
X014192Y010977D01*
X014208Y011294D02*
X013799Y011294D01*
X013384Y011643D02*
X014510Y011643D01*
X014970Y011611D02*
X015050Y011611D01*
X015050Y011452D02*
X014969Y011452D01*
X014811Y011294D02*
X015208Y011294D01*
X015811Y011294D02*
X016022Y011294D01*
X016022Y011452D02*
X015969Y011452D01*
X015970Y011611D02*
X016022Y011611D01*
X016022Y011769D02*
X015970Y011769D01*
X016022Y011928D02*
X015876Y011928D01*
X015746Y012086D02*
X016022Y012086D01*
X016022Y012245D02*
X015762Y012245D01*
X015920Y012403D02*
X016022Y012403D01*
X016022Y012562D02*
X015970Y012562D01*
X015970Y012720D02*
X016022Y012720D01*
X016022Y012879D02*
X015925Y012879D01*
X016022Y013037D02*
X015766Y013037D01*
X015510Y012643D02*
X015510Y012143D01*
X013884Y012143D01*
X013384Y012643D01*
X013799Y012720D02*
X014050Y012720D01*
X014050Y012562D02*
X013804Y012562D01*
X013963Y012403D02*
X014099Y012403D01*
X014094Y012879D02*
X013799Y012879D01*
X013767Y013037D02*
X014253Y013037D01*
X014766Y013037D02*
X015253Y013037D01*
X015094Y012879D02*
X014925Y012879D01*
X014970Y012720D02*
X015050Y012720D01*
X015050Y012562D02*
X014970Y012562D01*
X014920Y012403D02*
X015099Y012403D01*
X015050Y011769D02*
X014970Y011769D01*
X015510Y010143D02*
X013884Y010143D01*
X013384Y009643D01*
X013799Y009709D02*
X014050Y009709D01*
X014050Y009550D02*
X013799Y009550D01*
X013799Y009392D02*
X014110Y009392D01*
X014269Y009233D02*
X013751Y009233D01*
X014132Y008916D02*
X011920Y008916D01*
X011826Y009233D02*
X012268Y009233D01*
X012220Y009392D02*
X011920Y009392D01*
X011260Y009643D02*
X012635Y009643D01*
X013003Y009233D02*
X013016Y009233D01*
X013484Y008758D02*
X014050Y008758D01*
X014050Y008599D02*
X013643Y008599D01*
X013750Y008441D02*
X014061Y008441D01*
X014220Y008282D02*
X013750Y008282D01*
X013510Y008393D02*
X013510Y006893D01*
X013260Y007393D02*
X013010Y007643D01*
X011260Y007643D01*
X011260Y006643D02*
X012760Y006643D01*
X013010Y006393D01*
X013510Y008393D02*
X013260Y008643D01*
X011260Y008643D01*
X010740Y009075D02*
X014290Y009075D01*
X014729Y009075D02*
X015290Y009075D01*
X015269Y009233D02*
X014750Y009233D01*
X014909Y009392D02*
X015110Y009392D01*
X015050Y009550D02*
X014970Y009550D01*
X014970Y009709D02*
X015050Y009709D01*
X015083Y009867D02*
X014936Y009867D01*
X014083Y009867D02*
X013947Y009867D01*
X014887Y008916D02*
X015132Y008916D01*
X015050Y008758D02*
X014970Y008758D01*
X014970Y008599D02*
X015050Y008599D01*
X015061Y008441D02*
X014958Y008441D01*
X015729Y009075D02*
X016022Y009075D01*
X016022Y009233D02*
X015750Y009233D01*
X015909Y009392D02*
X016022Y009392D01*
X016022Y009550D02*
X015970Y009550D01*
X015970Y009709D02*
X016022Y009709D01*
X016022Y009867D02*
X015936Y009867D01*
X015887Y008916D02*
X016022Y008916D01*
X016022Y008758D02*
X015984Y008758D01*
X012635Y010643D02*
X011260Y010643D01*
X011902Y010977D02*
X012220Y010977D01*
X012220Y011294D02*
X011886Y011294D01*
X011260Y011643D02*
X012635Y011643D01*
X012635Y012643D02*
X011260Y012643D01*
X011842Y013037D02*
X012252Y013037D01*
X015310Y005893D02*
X015760Y005893D01*
X016022Y004795D02*
X015406Y004795D01*
X011982Y003844D02*
X010420Y003844D01*
X010420Y004320D02*
X010607Y004320D01*
X010600Y004478D02*
X010420Y004478D01*
X010420Y004637D02*
X010600Y004637D01*
D17*
X012260Y003643D03*
D18*
X015760Y003643D03*
M02*
