G75*
%MOIN*%
%OFA0B0*%
%FSLAX24Y24*%
%IPPOS*%
%LPD*%
%AMOC8*
5,1,8,0,0,1.08239X$1,22.5*
%
%ADD10C,0.0030*%
%ADD11C,0.0100*%
D10*
X004357Y003634D02*
X004662Y003634D01*
X004560Y003684D02*
X004560Y003786D01*
X004510Y003837D01*
X004357Y003837D01*
X004408Y003993D02*
X004357Y004043D01*
X004408Y003993D02*
X004611Y003993D01*
X004560Y004043D02*
X004560Y003942D01*
X004560Y004147D02*
X004560Y004249D01*
X004611Y004198D02*
X004408Y004198D01*
X004357Y004249D01*
X004357Y004353D02*
X004357Y004505D01*
X004408Y004556D01*
X004510Y004556D01*
X004560Y004505D01*
X004560Y004353D01*
X004256Y004353D01*
X004357Y004661D02*
X004357Y004813D01*
X004408Y004864D01*
X004459Y004813D01*
X004459Y004712D01*
X004510Y004661D01*
X004560Y004712D01*
X004560Y004864D01*
X004560Y004969D02*
X004510Y004969D01*
X004510Y005020D01*
X004560Y005020D01*
X004560Y004969D01*
X004408Y004969D02*
X004357Y004969D01*
X004357Y005020D01*
X004408Y005020D01*
X004408Y004969D01*
X004357Y005123D02*
X004662Y005326D01*
X004662Y005634D02*
X004357Y005431D01*
X004408Y005739D02*
X004357Y005790D01*
X004357Y005942D01*
X004306Y005942D02*
X004560Y005942D01*
X004560Y005790D01*
X004510Y005739D01*
X004408Y005739D01*
X004256Y005841D02*
X004256Y005892D01*
X004306Y005942D01*
X004357Y006047D02*
X004357Y006149D01*
X004357Y006098D02*
X004560Y006098D01*
X004560Y006047D01*
X004662Y006098D02*
X004713Y006098D01*
X004560Y006253D02*
X004560Y006354D01*
X004611Y006304D02*
X004408Y006304D01*
X004357Y006354D01*
X004357Y006458D02*
X004662Y006458D01*
X004560Y006509D02*
X004560Y006611D01*
X004510Y006661D01*
X004357Y006661D01*
X004408Y006766D02*
X004357Y006817D01*
X004357Y006970D01*
X004560Y006970D01*
X004560Y007074D02*
X004560Y007227D01*
X004510Y007278D01*
X004408Y007278D01*
X004357Y007227D01*
X004357Y007074D01*
X004662Y007074D01*
X004560Y006766D02*
X004408Y006766D01*
X004560Y006509D02*
X004510Y006458D01*
X004408Y007383D02*
X004408Y007433D01*
X004357Y007433D01*
X004357Y007383D01*
X004408Y007383D01*
X004408Y007537D02*
X004357Y007587D01*
X004357Y007740D01*
X004408Y007845D02*
X004357Y007896D01*
X004357Y007997D01*
X004408Y008048D01*
X004510Y008048D01*
X004560Y007997D01*
X004560Y007896D01*
X004510Y007845D01*
X004408Y007845D01*
X004560Y007740D02*
X004560Y007587D01*
X004510Y007537D01*
X004408Y007537D01*
X004357Y008153D02*
X004560Y008153D01*
X004560Y008204D01*
X004510Y008255D01*
X004560Y008305D01*
X004510Y008356D01*
X004357Y008356D01*
X004357Y008255D02*
X004510Y008255D01*
X004357Y008461D02*
X004662Y008664D01*
X004510Y008769D02*
X004408Y008769D01*
X004357Y008820D01*
X004357Y008972D01*
X004306Y008972D02*
X004560Y008972D01*
X004560Y008820D01*
X004510Y008769D01*
X004256Y008871D02*
X004256Y008922D01*
X004306Y008972D01*
X004357Y009077D02*
X004357Y009179D01*
X004357Y009128D02*
X004662Y009128D01*
X004662Y009077D01*
X004510Y009283D02*
X004408Y009283D01*
X004357Y009334D01*
X004357Y009435D01*
X004408Y009486D01*
X004510Y009486D01*
X004560Y009435D01*
X004560Y009334D01*
X004510Y009283D01*
X004560Y009591D02*
X004408Y009591D01*
X004357Y009642D01*
X004408Y009693D01*
X004357Y009743D01*
X004408Y009794D01*
X004560Y009794D01*
X004510Y009899D02*
X004560Y009950D01*
X004560Y010052D01*
X004510Y010102D01*
X004459Y010102D01*
X004459Y009899D01*
X004408Y009899D02*
X004510Y009899D01*
X004408Y009899D02*
X004357Y009950D01*
X004357Y010052D01*
X004357Y010207D02*
X004357Y010309D01*
X004357Y010258D02*
X004662Y010258D01*
X004662Y010207D01*
X004510Y010413D02*
X004560Y010463D01*
X004560Y010565D01*
X004510Y010616D01*
X004459Y010616D01*
X004459Y010413D01*
X004408Y010413D02*
X004510Y010413D01*
X004408Y010413D02*
X004357Y010463D01*
X004357Y010565D01*
X004408Y010721D02*
X004357Y010772D01*
X004357Y010924D01*
X004408Y011080D02*
X004357Y011131D01*
X004408Y011080D02*
X004611Y011080D01*
X004560Y011029D02*
X004560Y011131D01*
X004560Y011234D02*
X004357Y011234D01*
X004459Y011234D02*
X004560Y011336D01*
X004560Y011387D01*
X004510Y011491D02*
X004408Y011491D01*
X004357Y011542D01*
X004357Y011644D01*
X004408Y011694D01*
X004510Y011694D01*
X004560Y011644D01*
X004560Y011542D01*
X004510Y011491D01*
X004560Y011799D02*
X004357Y011799D01*
X004560Y011799D02*
X004560Y011952D01*
X004510Y012003D01*
X004357Y012003D01*
X004357Y012107D02*
X004357Y012209D01*
X004357Y012158D02*
X004560Y012158D01*
X004560Y012107D01*
X004662Y012158D02*
X004713Y012158D01*
X004510Y012313D02*
X004560Y012364D01*
X004560Y012516D01*
X004510Y012621D02*
X004459Y012672D01*
X004459Y012773D01*
X004408Y012824D01*
X004357Y012773D01*
X004357Y012621D01*
X004357Y012516D02*
X004357Y012364D01*
X004408Y012313D01*
X004510Y012313D01*
X004510Y012621D02*
X004560Y012672D01*
X004560Y012824D01*
X004560Y010924D02*
X004560Y010772D01*
X004510Y010721D01*
X004408Y010721D01*
X004560Y003684D02*
X004510Y003634D01*
D11*
X003510Y003143D02*
X016260Y003143D01*
X016260Y013393D01*
X010510Y013393D01*
X010510Y005143D01*
X005510Y005143D01*
X005510Y013393D01*
X003510Y013393D01*
X003510Y003143D01*
M02*
